solid OpenSCAD_Model
  facet normal -0 0 -1
    outer loop
      vertex 4.09408 11.8049 0
      vertex 4 11.8 0
      vertex 4 11.8049 0
    endloop
  endfacet
  facet normal 0 0 -1
    outer loop
      vertex 11.8049 4 0
      vertex 11.8 4 0
      vertex 11.8049 4.09408 0
    endloop
  endfacet
  facet normal 0 0 -1
    outer loop
      vertex 25.2 25.2 0
      vertex 13.5951 21.3059 0
      vertex 13.6 21.4 0
    endloop
  endfacet
  facet normal 0 0 -1
    outer loop
      vertex 21.1219 13.556 0
      vertex 13.556 21.1219 0
      vertex 13.5951 21.3059 0
    endloop
  endfacet
  facet normal 0 0 -1
    outer loop
      vertex 15.1 15.1 0
      vertex 13.4794 20.95 0
      vertex 13.556 21.1219 0
    endloop
  endfacet
  facet normal 0 0 -1
    outer loop
      vertex 15.1 15.1 0
      vertex 13.3688 20.7978 0
      vertex 13.4794 20.95 0
    endloop
  endfacet
  facet normal 0 0 -1
    outer loop
      vertex 15.1 15.1 0
      vertex 13.229 20.6719 0
      vertex 13.3688 20.7978 0
    endloop
  endfacet
  facet normal 0 0 -1
    outer loop
      vertex 15.1 15.1 0
      vertex 13.0661 20.5778 0
      vertex 13.229 20.6719 0
    endloop
  endfacet
  facet normal 0 0 -1
    outer loop
      vertex 15.1 15.1 0
      vertex 12.8871 20.5197 0
      vertex 13.0661 20.5778 0
    endloop
  endfacet
  facet normal 0 0 -1
    outer loop
      vertex 15.1 15.1 0
      vertex 12.7 20.5 0
      vertex 12.8871 20.5197 0
    endloop
  endfacet
  facet normal 0 0 -1
    outer loop
      vertex 10.3 15.1 0
      vertex 12.7 20.5 0
      vertex 15.1 15.1 0
    endloop
  endfacet
  facet normal -0 0 -1
    outer loop
      vertex 12.7 20.5 0
      vertex 10.3 15.1 0
      vertex 12.5129 20.5197 0
    endloop
  endfacet
  facet normal -0 0 -1
    outer loop
      vertex 12.5129 20.5197 0
      vertex 10.3 15.1 0
      vertex 12.3339 20.5778 0
    endloop
  endfacet
  facet normal -0 0 -1
    outer loop
      vertex 12.3339 20.5778 0
      vertex 10.3 15.1 0
      vertex 12.171 20.6719 0
    endloop
  endfacet
  facet normal -0 0 -1
    outer loop
      vertex 12.171 20.6719 0
      vertex 10.3 15.1 0
      vertex 12.0312 20.7978 0
    endloop
  endfacet
  facet normal 0 0 -1
    outer loop
      vertex 11.8049 21.3059 0
      vertex 11.8 21.4 0
      vertex 11.8049 21.4 0
    endloop
  endfacet
  facet normal 0 0 -1
    outer loop
      vertex 4.09408 13.5951 0
      vertex 11.8049 21.3059 0
      vertex 4.27812 13.556 0
    endloop
  endfacet
  facet normal -0 0 -1
    outer loop
      vertex 11.844 21.1219 0
      vertex 4.27812 13.556 0
      vertex 11.8049 21.3059 0
    endloop
  endfacet
  facet normal 0 0 -1
    outer loop
      vertex 4.27812 13.556 0
      vertex 11.844 21.1219 0
      vertex 10.3 15.1 0
    endloop
  endfacet
  facet normal -0 0 -1
    outer loop
      vertex 11.9206 20.95 0
      vertex 10.3 15.1 0
      vertex 11.844 21.1219 0
    endloop
  endfacet
  facet normal -0 0 -1
    outer loop
      vertex 12.0312 20.7978 0
      vertex 10.3 15.1 0
      vertex 11.9206 20.95 0
    endloop
  endfacet
  facet normal 0 0 -1
    outer loop
      vertex 21.4 13.5951 0
      vertex 21.3059 13.5951 0
      vertex 21.4 13.6 0
    endloop
  endfacet
  facet normal 0 0 -1
    outer loop
      vertex 25.2 0.2 0
      vertex 23.9 11.8 0
      vertex 25.2 25.2 0
    endloop
  endfacet
  facet normal 0 0 -1
    outer loop
      vertex 25.2 0.2 0
      vertex 21.4 11.8 0
      vertex 23.9 11.8 0
    endloop
  endfacet
  facet normal 0 0 -1
    outer loop
      vertex 21.4 11.8 0
      vertex 21.3059 11.8049 0
      vertex 21.4 11.8049 0
    endloop
  endfacet
  facet normal 0 0 -1
    outer loop
      vertex 25.2 0.2 0
      vertex 21.3059 11.8049 0
      vertex 21.4 11.8 0
    endloop
  endfacet
  facet normal 0 0 -1
    outer loop
      vertex 13.5951 4.09408 0
      vertex 21.3059 11.8049 0
      vertex 25.2 0.2 0
    endloop
  endfacet
  facet normal -0 0 -1
    outer loop
      vertex 21.3059 11.8049 0
      vertex 13.5951 4.09408 0
      vertex 21.1219 11.844 0
    endloop
  endfacet
  facet normal 0 0 -1
    outer loop
      vertex 13.556 4.27812 0
      vertex 21.1219 11.844 0
      vertex 13.5951 4.09408 0
    endloop
  endfacet
  facet normal 0 -0 -1
    outer loop
      vertex 15.1 10.3 0
      vertex 21.1219 11.844 0
      vertex 13.556 4.27812 0
    endloop
  endfacet
  facet normal -0 0 -1
    outer loop
      vertex 21.1219 11.844 0
      vertex 15.1 10.3 0
      vertex 20.95 11.9206 0
    endloop
  endfacet
  facet normal -0 0 -1
    outer loop
      vertex 20.5197 12.5129 0
      vertex 15.1 10.3 0
      vertex 20.5 12.7 0
    endloop
  endfacet
  facet normal -0 0 -1
    outer loop
      vertex 20.5778 12.3339 0
      vertex 15.1 10.3 0
      vertex 20.5197 12.5129 0
    endloop
  endfacet
  facet normal -0 0 -1
    outer loop
      vertex 20.95 11.9206 0
      vertex 15.1 10.3 0
      vertex 20.7978 12.0312 0
    endloop
  endfacet
  facet normal 0 0 -1
    outer loop
      vertex 13.6 4 0
      vertex 25.2 0.2 0
      vertex 13.6 1.5 0
    endloop
  endfacet
  facet normal 0 0 -1
    outer loop
      vertex 25.2 0.2 0
      vertex 11.8 1.5 0
      vertex 13.6 1.5 0
    endloop
  endfacet
  facet normal 0 0 -1
    outer loop
      vertex 0.2 0.2 0
      vertex 11.8 4 0
      vertex 11.8 1.5 0
    endloop
  endfacet
  facet normal 0 0 -1
    outer loop
      vertex 10.3 10.3 0
      vertex 4.9 12.7 0
      vertex 10.3 15.1 0
    endloop
  endfacet
  facet normal 0 0 -1
    outer loop
      vertex 11.8 4 0
      vertex 4.27812 11.844 0
      vertex 10.3 10.3 0
    endloop
  endfacet
  facet normal 0 0 -1
    outer loop
      vertex 10.3 10.3 0
      vertex 4.88033 12.5129 0
      vertex 4.9 12.7 0
    endloop
  endfacet
  facet normal 0 0 -1
    outer loop
      vertex 10.3 10.3 0
      vertex 4.82219 12.3339 0
      vertex 4.88033 12.5129 0
    endloop
  endfacet
  facet normal 0 0 -1
    outer loop
      vertex 10.3 10.3 0
      vertex 4.72812 12.171 0
      vertex 4.82219 12.3339 0
    endloop
  endfacet
  facet normal 0 0 -1
    outer loop
      vertex 10.3 10.3 0
      vertex 4.60222 12.0312 0
      vertex 4.72812 12.171 0
    endloop
  endfacet
  facet normal 0 0 -1
    outer loop
      vertex 10.3 10.3 0
      vertex 4.45 11.9206 0
      vertex 4.60222 12.0312 0
    endloop
  endfacet
  facet normal 0 0 -1
    outer loop
      vertex 10.3 10.3 0
      vertex 4.27812 11.844 0
      vertex 4.45 11.9206 0
    endloop
  endfacet
  facet normal 0 0 -1
    outer loop
      vertex 11.8 4 0
      vertex 4.09408 11.8049 0
      vertex 4.27812 11.844 0
    endloop
  endfacet
  facet normal -0 0 -1
    outer loop
      vertex 11.8 4 0
      vertex 0.2 0.2 0
      vertex 4.09408 11.8049 0
    endloop
  endfacet
  facet normal 0 0 -1
    outer loop
      vertex 4.09408 11.8049 0
      vertex 0.2 0.2 0
      vertex 4 11.8 0
    endloop
  endfacet
  facet normal -0 0 -1
    outer loop
      vertex 1.5 11.8 0
      vertex 0.2 0.2 0
      vertex 1.5 13.6 0
    endloop
  endfacet
  facet normal -0 0 -1
    outer loop
      vertex 4 11.8 0
      vertex 0.2 0.2 0
      vertex 1.5 11.8 0
    endloop
  endfacet
  facet normal 0 0 -1
    outer loop
      vertex 0.2 0.2 0
      vertex 11.8 1.5 0
      vertex 25.2 0.2 0
    endloop
  endfacet
  facet normal 0 0 -1
    outer loop
      vertex 23.9 13.6 0
      vertex 25.2 25.2 0
      vertex 23.9 11.8 0
    endloop
  endfacet
  facet normal 0 0 -1
    outer loop
      vertex 21.4 13.6 0
      vertex 25.2 25.2 0
      vertex 23.9 13.6 0
    endloop
  endfacet
  facet normal 0 0 -1
    outer loop
      vertex 21.3059 13.5951 0
      vertex 25.2 25.2 0
      vertex 21.4 13.6 0
    endloop
  endfacet
  facet normal 0 0 -1
    outer loop
      vertex 13.5951 21.3059 0
      vertex 21.3059 13.5951 0
      vertex 21.1219 13.556 0
    endloop
  endfacet
  facet normal 0 0 -1
    outer loop
      vertex 15.1 15.1 0
      vertex 21.1219 13.556 0
      vertex 20.95 13.4794 0
    endloop
  endfacet
  facet normal 0 0 -1
    outer loop
      vertex 15.1 15.1 0
      vertex 20.95 13.4794 0
      vertex 20.7978 13.3688 0
    endloop
  endfacet
  facet normal 0 0 -1
    outer loop
      vertex 15.1 15.1 0
      vertex 20.7978 13.3688 0
      vertex 20.6719 13.229 0
    endloop
  endfacet
  facet normal 0 0 -1
    outer loop
      vertex 15.1 15.1 0
      vertex 20.6719 13.229 0
      vertex 20.5778 13.0661 0
    endloop
  endfacet
  facet normal 0 0 -1
    outer loop
      vertex 15.1 15.1 0
      vertex 20.5 12.7 0
      vertex 15.1 10.3 0
    endloop
  endfacet
  facet normal 0 0 -1
    outer loop
      vertex 20.5 12.7 0
      vertex 15.1 15.1 0
      vertex 20.5197 12.8871 0
    endloop
  endfacet
  facet normal 0 0 -1
    outer loop
      vertex 20.5197 12.8871 0
      vertex 15.1 15.1 0
      vertex 20.5778 13.0661 0
    endloop
  endfacet
  facet normal 0 0 -1
    outer loop
      vertex 13.556 21.1219 0
      vertex 21.1219 13.556 0
      vertex 15.1 15.1 0
    endloop
  endfacet
  facet normal 0 0 -1
    outer loop
      vertex 13.5951 21.3059 0
      vertex 25.2 25.2 0
      vertex 21.3059 13.5951 0
    endloop
  endfacet
  facet normal 0 0 -1
    outer loop
      vertex 13.6 23.9 0
      vertex 25.2 25.2 0
      vertex 13.6 21.4 0
    endloop
  endfacet
  facet normal 0 0 -1
    outer loop
      vertex 11.8 23.9 0
      vertex 25.2 25.2 0
      vertex 13.6 23.9 0
    endloop
  endfacet
  facet normal 0 0 -1
    outer loop
      vertex 4.88033 12.8871 0
      vertex 10.3 15.1 0
      vertex 4.9 12.7 0
    endloop
  endfacet
  facet normal 0 0 -1
    outer loop
      vertex 4.82219 13.0661 0
      vertex 10.3 15.1 0
      vertex 4.88033 12.8871 0
    endloop
  endfacet
  facet normal 0 0 -1
    outer loop
      vertex 4.72812 13.229 0
      vertex 10.3 15.1 0
      vertex 4.82219 13.0661 0
    endloop
  endfacet
  facet normal 0 0 -1
    outer loop
      vertex 4.60222 13.3688 0
      vertex 10.3 15.1 0
      vertex 4.72812 13.229 0
    endloop
  endfacet
  facet normal 0 0 -1
    outer loop
      vertex 4.45 13.4794 0
      vertex 10.3 15.1 0
      vertex 4.60222 13.3688 0
    endloop
  endfacet
  facet normal 0 0 -1
    outer loop
      vertex 4.27812 13.556 0
      vertex 10.3 15.1 0
      vertex 4.45 13.4794 0
    endloop
  endfacet
  facet normal 0 0 -1
    outer loop
      vertex 0.2 25.2 0
      vertex 11.8049 21.3059 0
      vertex 4.09408 13.5951 0
    endloop
  endfacet
  facet normal 0 0 -1
    outer loop
      vertex 11.8049 21.3059 0
      vertex 0.2 25.2 0
      vertex 11.8 21.4 0
    endloop
  endfacet
  facet normal 0 0 -1
    outer loop
      vertex 4 13.6 0
      vertex 4.09408 13.5951 0
      vertex 4 13.5951 0
    endloop
  endfacet
  facet normal 0 0 -1
    outer loop
      vertex 0.2 25.2 0
      vertex 4.09408 13.5951 0
      vertex 4 13.6 0
    endloop
  endfacet
  facet normal 0 0 -1
    outer loop
      vertex 0.2 25.2 0
      vertex 4 13.6 0
      vertex 1.5 13.6 0
    endloop
  endfacet
  facet normal 0 0 -1
    outer loop
      vertex 11.8 23.9 0
      vertex 0.2 25.2 0
      vertex 25.2 25.2 0
    endloop
  endfacet
  facet normal 0 0 -1
    outer loop
      vertex 11.8 21.4 0
      vertex 0.2 25.2 0
      vertex 11.8 23.9 0
    endloop
  endfacet
  facet normal 0 0 -1
    outer loop
      vertex 0.2 25.2 0
      vertex 1.5 13.6 0
      vertex 0.2 0.2 0
    endloop
  endfacet
  facet normal 0 0 -1
    outer loop
      vertex 13.5951 4.09408 0
      vertex 25.2 0.2 0
      vertex 13.6 4 0
    endloop
  endfacet
  facet normal 0 0 -1
    outer loop
      vertex 13.5951 4.09408 0
      vertex 13.6 4 0
      vertex 13.5951 4 0
    endloop
  endfacet
  facet normal -0 0 -1
    outer loop
      vertex 20.7978 12.0312 0
      vertex 15.1 10.3 0
      vertex 20.6719 12.171 0
    endloop
  endfacet
  facet normal -0 0 -1
    outer loop
      vertex 20.6719 12.171 0
      vertex 15.1 10.3 0
      vertex 20.5778 12.3339 0
    endloop
  endfacet
  facet normal 0 0 -1
    outer loop
      vertex 13.4794 4.45 0
      vertex 15.1 10.3 0
      vertex 13.556 4.27812 0
    endloop
  endfacet
  facet normal 0 0 -1
    outer loop
      vertex 13.3688 4.60222 0
      vertex 15.1 10.3 0
      vertex 13.4794 4.45 0
    endloop
  endfacet
  facet normal 0 0 -1
    outer loop
      vertex 13.229 4.72812 0
      vertex 15.1 10.3 0
      vertex 13.3688 4.60222 0
    endloop
  endfacet
  facet normal 0 0 -1
    outer loop
      vertex 13.0661 4.82219 0
      vertex 15.1 10.3 0
      vertex 13.229 4.72812 0
    endloop
  endfacet
  facet normal 0 0 -1
    outer loop
      vertex 12.8871 4.88033 0
      vertex 15.1 10.3 0
      vertex 13.0661 4.82219 0
    endloop
  endfacet
  facet normal 0 0 -1
    outer loop
      vertex 12.7 4.9 0
      vertex 15.1 10.3 0
      vertex 12.8871 4.88033 0
    endloop
  endfacet
  facet normal 0 0 -1
    outer loop
      vertex 10.3 10.3 0
      vertex 12.7 4.9 0
      vertex 12.5129 4.88033 0
    endloop
  endfacet
  facet normal 0 0 -1
    outer loop
      vertex 10.3 10.3 0
      vertex 12.5129 4.88033 0
      vertex 12.3339 4.82219 0
    endloop
  endfacet
  facet normal 0 0 -1
    outer loop
      vertex 10.3 10.3 0
      vertex 12.3339 4.82219 0
      vertex 12.171 4.72812 0
    endloop
  endfacet
  facet normal 0 0 -1
    outer loop
      vertex 10.3 10.3 0
      vertex 12.171 4.72812 0
      vertex 12.0312 4.60222 0
    endloop
  endfacet
  facet normal 0 0 -1
    outer loop
      vertex 10.3 10.3 0
      vertex 12.0312 4.60222 0
      vertex 11.9206 4.45 0
    endloop
  endfacet
  facet normal 0 0 -1
    outer loop
      vertex 12.7 4.9 0
      vertex 10.3 10.3 0
      vertex 15.1 10.3 0
    endloop
  endfacet
  facet normal 0 0 -1
    outer loop
      vertex 11.844 4.27812 0
      vertex 10.3 10.3 0
      vertex 11.9206 4.45 0
    endloop
  endfacet
  facet normal 0 0 -1
    outer loop
      vertex 11.8049 4.09408 0
      vertex 10.3 10.3 0
      vertex 11.844 4.27812 0
    endloop
  endfacet
  facet normal 0 0 -1
    outer loop
      vertex 10.3 10.3 0
      vertex 11.8049 4.09408 0
      vertex 11.8 4 0
    endloop
  endfacet
  facet normal -0 0 -1
    outer loop
      vertex 13.6 21.4 0
      vertex 13.5951 21.3059 0
      vertex 13.5951 21.4 0
    endloop
  endfacet
  facet normal -1 0 0
    outer loop
      vertex 15.1 10.3 0
      vertex 15.1 15.1 0.599999
      vertex 15.1 15.1 0
    endloop
  endfacet
  facet normal -1 -0 0
    outer loop
      vertex 15.1 15.1 0.599999
      vertex 15.1 10.3 0
      vertex 15.1 10.3 0.599999
    endloop
  endfacet
  facet normal 1 -0 0
    outer loop
      vertex 10.3 10.3 0.599999
      vertex 10.3 15.1 0
      vertex 10.3 15.1 0.599999
    endloop
  endfacet
  facet normal 1 0 0
    outer loop
      vertex 10.3 15.1 0
      vertex 10.3 10.3 0.599999
      vertex 10.3 10.3 0
    endloop
  endfacet
  facet normal 0 -1 0
    outer loop
      vertex 10.3 15.1 0
      vertex 15.1 15.1 0.599999
      vertex 10.3 15.1 0.599999
    endloop
  endfacet
  facet normal 0 -1 -0
    outer loop
      vertex 15.1 15.1 0.599999
      vertex 10.3 15.1 0
      vertex 15.1 15.1 0
    endloop
  endfacet
  facet normal 0 1 -0
    outer loop
      vertex 15.1 10.3 0
      vertex 10.3 10.3 0.599999
      vertex 15.1 10.3 0.599999
    endloop
  endfacet
  facet normal 0 1 0
    outer loop
      vertex 10.3 10.3 0.599999
      vertex 15.1 10.3 0
      vertex 10.3 10.3 0
    endloop
  endfacet
  facet normal 0 0 1
    outer loop
      vertex 4.09408 13.5951 0.599999
      vertex 4 13.6 0.599999
      vertex 4 13.5951 0.599999
    endloop
  endfacet
  facet normal 0 0 1
    outer loop
      vertex 11.8049 21.4 0.599999
      vertex 11.8 21.4 0.599999
      vertex 11.8049 21.3059 0.599999
    endloop
  endfacet
  facet normal 0 0 1
    outer loop
      vertex 25.2 0.2 0.599999
      vertex 13.5951 4.09408 0.599999
      vertex 13.6 4 0.599999
    endloop
  endfacet
  facet normal 0 0 1
    outer loop
      vertex 21.1219 11.844 0.599999
      vertex 13.556 4.27812 0.599999
      vertex 13.5951 4.09408 0.599999
    endloop
  endfacet
  facet normal 0 0 1
    outer loop
      vertex 15.1 10.3 0.599999
      vertex 13.4794 4.45 0.599999
      vertex 13.556 4.27812 0.599999
    endloop
  endfacet
  facet normal 0 0 1
    outer loop
      vertex 15.1 10.3 0.599999
      vertex 13.3688 4.60222 0.599999
      vertex 13.4794 4.45 0.599999
    endloop
  endfacet
  facet normal 0 0 1
    outer loop
      vertex 15.1 10.3 0.599999
      vertex 13.229 4.72812 0.599999
      vertex 13.3688 4.60222 0.599999
    endloop
  endfacet
  facet normal 0 0 1
    outer loop
      vertex 15.1 10.3 0.599999
      vertex 13.0661 4.82219 0.599999
      vertex 13.229 4.72812 0.599999
    endloop
  endfacet
  facet normal 0 0 1
    outer loop
      vertex 15.1 10.3 0.599999
      vertex 12.8871 4.88033 0.599999
      vertex 13.0661 4.82219 0.599999
    endloop
  endfacet
  facet normal 0 0 1
    outer loop
      vertex 15.1 10.3 0.599999
      vertex 12.7 4.9 0.599999
      vertex 12.8871 4.88033 0.599999
    endloop
  endfacet
  facet normal -0 0 1
    outer loop
      vertex 10.3 10.3 0.599999
      vertex 12.7 4.9 0.599999
      vertex 15.1 10.3 0.599999
    endloop
  endfacet
  facet normal 0 0 1
    outer loop
      vertex 12.7 4.9 0.599999
      vertex 10.3 10.3 0.599999
      vertex 12.5129 4.88033 0.599999
    endloop
  endfacet
  facet normal 0 0 1
    outer loop
      vertex 12.5129 4.88033 0.599999
      vertex 10.3 10.3 0.599999
      vertex 12.3339 4.82219 0.599999
    endloop
  endfacet
  facet normal 0 0 1
    outer loop
      vertex 12.3339 4.82219 0.599999
      vertex 10.3 10.3 0.599999
      vertex 12.171 4.72812 0.599999
    endloop
  endfacet
  facet normal 0 0 1
    outer loop
      vertex 12.171 4.72812 0.599999
      vertex 10.3 10.3 0.599999
      vertex 12.0312 4.60222 0.599999
    endloop
  endfacet
  facet normal 0 0 1
    outer loop
      vertex 11.8049 4.09408 0.599999
      vertex 11.8 4 0.599999
      vertex 11.8049 4 0.599999
    endloop
  endfacet
  facet normal -0 0 1
    outer loop
      vertex 4.09408 11.8049 0.599999
      vertex 11.8049 4.09408 0.599999
      vertex 4.27812 11.844 0.599999
    endloop
  endfacet
  facet normal 0 0 1
    outer loop
      vertex 11.844 4.27812 0.599999
      vertex 4.27812 11.844 0.599999
      vertex 11.8049 4.09408 0.599999
    endloop
  endfacet
  facet normal 0 0 1
    outer loop
      vertex 4.27812 11.844 0.599999
      vertex 11.844 4.27812 0.599999
      vertex 10.3 10.3 0.599999
    endloop
  endfacet
  facet normal 0 0 1
    outer loop
      vertex 11.9206 4.45 0.599999
      vertex 10.3 10.3 0.599999
      vertex 11.844 4.27812 0.599999
    endloop
  endfacet
  facet normal 0 0 1
    outer loop
      vertex 12.0312 4.60222 0.599999
      vertex 10.3 10.3 0.599999
      vertex 11.9206 4.45 0.599999
    endloop
  endfacet
  facet normal 0 0 1
    outer loop
      vertex 21.4 11.8049 0.599999
      vertex 21.3059 11.8049 0.599999
      vertex 21.4 11.8 0.599999
    endloop
  endfacet
  facet normal 0 0 1
    outer loop
      vertex 25.2 25.2 0.599999
      vertex 23.9 13.6 0.599999
      vertex 25.2 0.2 0.599999
    endloop
  endfacet
  facet normal 0 0 1
    outer loop
      vertex 25.2 25.2 0.599999
      vertex 21.4 13.6 0.599999
      vertex 23.9 13.6 0.599999
    endloop
  endfacet
  facet normal 0 0 1
    outer loop
      vertex 21.4 13.6 0.599999
      vertex 21.3059 13.5951 0.599999
      vertex 21.4 13.5951 0.599999
    endloop
  endfacet
  facet normal 0 0 1
    outer loop
      vertex 25.2 25.2 0.599999
      vertex 21.3059 13.5951 0.599999
      vertex 21.4 13.6 0.599999
    endloop
  endfacet
  facet normal -0 0 1
    outer loop
      vertex 13.5951 21.3059 0.599999
      vertex 21.3059 13.5951 0.599999
      vertex 25.2 25.2 0.599999
    endloop
  endfacet
  facet normal 0 0 1
    outer loop
      vertex 21.3059 13.5951 0.599999
      vertex 13.5951 21.3059 0.599999
      vertex 21.1219 13.556 0.599999
    endloop
  endfacet
  facet normal -0 0 1
    outer loop
      vertex 13.556 21.1219 0.599999
      vertex 21.1219 13.556 0.599999
      vertex 13.5951 21.3059 0.599999
    endloop
  endfacet
  facet normal -0 -0 1
    outer loop
      vertex 15.1 15.1 0.599999
      vertex 21.1219 13.556 0.599999
      vertex 13.556 21.1219 0.599999
    endloop
  endfacet
  facet normal 0 0 1
    outer loop
      vertex 21.1219 13.556 0.599999
      vertex 15.1 15.1 0.599999
      vertex 20.95 13.4794 0.599999
    endloop
  endfacet
  facet normal 0 0 1
    outer loop
      vertex 20.5197 12.8871 0.599999
      vertex 15.1 15.1 0.599999
      vertex 20.5 12.7 0.599999
    endloop
  endfacet
  facet normal 0 0 1
    outer loop
      vertex 20.5778 13.0661 0.599999
      vertex 15.1 15.1 0.599999
      vertex 20.5197 12.8871 0.599999
    endloop
  endfacet
  facet normal 0 0 1
    outer loop
      vertex 20.95 13.4794 0.599999
      vertex 15.1 15.1 0.599999
      vertex 20.7978 13.3688 0.599999
    endloop
  endfacet
  facet normal 0 0 1
    outer loop
      vertex 13.6 21.4 0.599999
      vertex 25.2 25.2 0.599999
      vertex 13.6 23.9 0.599999
    endloop
  endfacet
  facet normal 0 0 1
    outer loop
      vertex 25.2 25.2 0.599999
      vertex 11.8 23.9 0.599999
      vertex 13.6 23.9 0.599999
    endloop
  endfacet
  facet normal 0 0 1
    outer loop
      vertex 0.2 25.2 0.599999
      vertex 11.8 21.4 0.599999
      vertex 11.8 23.9 0.599999
    endloop
  endfacet
  facet normal 0 0 1
    outer loop
      vertex 10.3 15.1 0.599999
      vertex 4.9 12.7 0.599999
      vertex 10.3 10.3 0.599999
    endloop
  endfacet
  facet normal 0 0 1
    outer loop
      vertex 11.8 21.4 0.599999
      vertex 4.27812 13.556 0.599999
      vertex 10.3 15.1 0.599999
    endloop
  endfacet
  facet normal 0 0 1
    outer loop
      vertex 10.3 15.1 0.599999
      vertex 4.88033 12.8871 0.599999
      vertex 4.9 12.7 0.599999
    endloop
  endfacet
  facet normal 0 0 1
    outer loop
      vertex 10.3 15.1 0.599999
      vertex 4.82219 13.0661 0.599999
      vertex 4.88033 12.8871 0.599999
    endloop
  endfacet
  facet normal 0 0 1
    outer loop
      vertex 10.3 15.1 0.599999
      vertex 4.72812 13.229 0.599999
      vertex 4.82219 13.0661 0.599999
    endloop
  endfacet
  facet normal 0 0 1
    outer loop
      vertex 10.3 15.1 0.599999
      vertex 4.60222 13.3688 0.599999
      vertex 4.72812 13.229 0.599999
    endloop
  endfacet
  facet normal 0 0 1
    outer loop
      vertex 10.3 15.1 0.599999
      vertex 4.45 13.4794 0.599999
      vertex 4.60222 13.3688 0.599999
    endloop
  endfacet
  facet normal 0 0 1
    outer loop
      vertex 10.3 15.1 0.599999
      vertex 4.27812 13.556 0.599999
      vertex 4.45 13.4794 0.599999
    endloop
  endfacet
  facet normal 0 0 1
    outer loop
      vertex 11.8 21.4 0.599999
      vertex 4.09408 13.5951 0.599999
      vertex 4.27812 13.556 0.599999
    endloop
  endfacet
  facet normal 0 0 1
    outer loop
      vertex 11.8 21.4 0.599999
      vertex 0.2 25.2 0.599999
      vertex 4.09408 13.5951 0.599999
    endloop
  endfacet
  facet normal 0 0 1
    outer loop
      vertex 4.09408 13.5951 0.599999
      vertex 0.2 25.2 0.599999
      vertex 4 13.6 0.599999
    endloop
  endfacet
  facet normal 0 0 1
    outer loop
      vertex 1.5 13.6 0.599999
      vertex 0.2 25.2 0.599999
      vertex 1.5 11.8 0.599999
    endloop
  endfacet
  facet normal 0 0 1
    outer loop
      vertex 4 13.6 0.599999
      vertex 0.2 25.2 0.599999
      vertex 1.5 13.6 0.599999
    endloop
  endfacet
  facet normal -0 0 1
    outer loop
      vertex 0.2 25.2 0.599999
      vertex 11.8 23.9 0.599999
      vertex 25.2 25.2 0.599999
    endloop
  endfacet
  facet normal -0 0 1
    outer loop
      vertex 23.9 11.8 0.599999
      vertex 25.2 0.2 0.599999
      vertex 23.9 13.6 0.599999
    endloop
  endfacet
  facet normal -0 0 1
    outer loop
      vertex 21.4 11.8 0.599999
      vertex 25.2 0.2 0.599999
      vertex 23.9 11.8 0.599999
    endloop
  endfacet
  facet normal 0 0 1
    outer loop
      vertex 21.3059 11.8049 0.599999
      vertex 25.2 0.2 0.599999
      vertex 21.4 11.8 0.599999
    endloop
  endfacet
  facet normal 0 0 1
    outer loop
      vertex 13.5951 4.09408 0.599999
      vertex 21.3059 11.8049 0.599999
      vertex 21.1219 11.844 0.599999
    endloop
  endfacet
  facet normal 0 0 1
    outer loop
      vertex 15.1 10.3 0.599999
      vertex 21.1219 11.844 0.599999
      vertex 20.95 11.9206 0.599999
    endloop
  endfacet
  facet normal 0 0 1
    outer loop
      vertex 15.1 10.3 0.599999
      vertex 20.95 11.9206 0.599999
      vertex 20.7978 12.0312 0.599999
    endloop
  endfacet
  facet normal 0 0 1
    outer loop
      vertex 15.1 10.3 0.599999
      vertex 20.7978 12.0312 0.599999
      vertex 20.6719 12.171 0.599999
    endloop
  endfacet
  facet normal 0 0 1
    outer loop
      vertex 15.1 10.3 0.599999
      vertex 20.6719 12.171 0.599999
      vertex 20.5778 12.3339 0.599999
    endloop
  endfacet
  facet normal 0 0 1
    outer loop
      vertex 15.1 10.3 0.599999
      vertex 20.5 12.7 0.599999
      vertex 15.1 15.1 0.599999
    endloop
  endfacet
  facet normal 0 0 1
    outer loop
      vertex 20.5 12.7 0.599999
      vertex 15.1 10.3 0.599999
      vertex 20.5197 12.5129 0.599999
    endloop
  endfacet
  facet normal 0 0 1
    outer loop
      vertex 20.5197 12.5129 0.599999
      vertex 15.1 10.3 0.599999
      vertex 20.5778 12.3339 0.599999
    endloop
  endfacet
  facet normal 0 0 1
    outer loop
      vertex 13.556 4.27812 0.599999
      vertex 21.1219 11.844 0.599999
      vertex 15.1 10.3 0.599999
    endloop
  endfacet
  facet normal -0 0 1
    outer loop
      vertex 13.5951 4.09408 0.599999
      vertex 25.2 0.2 0.599999
      vertex 21.3059 11.8049 0.599999
    endloop
  endfacet
  facet normal -0 0 1
    outer loop
      vertex 13.6 1.5 0.599999
      vertex 25.2 0.2 0.599999
      vertex 13.6 4 0.599999
    endloop
  endfacet
  facet normal -0 0 1
    outer loop
      vertex 11.8 1.5 0.599999
      vertex 25.2 0.2 0.599999
      vertex 13.6 1.5 0.599999
    endloop
  endfacet
  facet normal -0 0 1
    outer loop
      vertex 4.88033 12.5129 0.599999
      vertex 10.3 10.3 0.599999
      vertex 4.9 12.7 0.599999
    endloop
  endfacet
  facet normal -0 0 1
    outer loop
      vertex 4.82219 12.3339 0.599999
      vertex 10.3 10.3 0.599999
      vertex 4.88033 12.5129 0.599999
    endloop
  endfacet
  facet normal -0 0 1
    outer loop
      vertex 4.72812 12.171 0.599999
      vertex 10.3 10.3 0.599999
      vertex 4.82219 12.3339 0.599999
    endloop
  endfacet
  facet normal -0 0 1
    outer loop
      vertex 4.60222 12.0312 0.599999
      vertex 10.3 10.3 0.599999
      vertex 4.72812 12.171 0.599999
    endloop
  endfacet
  facet normal -0 0 1
    outer loop
      vertex 4.45 11.9206 0.599999
      vertex 10.3 10.3 0.599999
      vertex 4.60222 12.0312 0.599999
    endloop
  endfacet
  facet normal -0 0 1
    outer loop
      vertex 4.27812 11.844 0.599999
      vertex 10.3 10.3 0.599999
      vertex 4.45 11.9206 0.599999
    endloop
  endfacet
  facet normal 0 0 1
    outer loop
      vertex 0.2 0.2 0.599999
      vertex 11.8049 4.09408 0.599999
      vertex 4.09408 11.8049 0.599999
    endloop
  endfacet
  facet normal 0 0 1
    outer loop
      vertex 11.8049 4.09408 0.599999
      vertex 0.2 0.2 0.599999
      vertex 11.8 4 0.599999
    endloop
  endfacet
  facet normal 0 0 1
    outer loop
      vertex 4 11.8 0.599999
      vertex 4.09408 11.8049 0.599999
      vertex 4 11.8049 0.599999
    endloop
  endfacet
  facet normal 0 0 1
    outer loop
      vertex 0.2 0.2 0.599999
      vertex 4.09408 11.8049 0.599999
      vertex 4 11.8 0.599999
    endloop
  endfacet
  facet normal 0 0 1
    outer loop
      vertex 0.2 0.2 0.599999
      vertex 4 11.8 0.599999
      vertex 1.5 11.8 0.599999
    endloop
  endfacet
  facet normal 0 0 1
    outer loop
      vertex 11.8 1.5 0.599999
      vertex 0.2 0.2 0.599999
      vertex 25.2 0.2 0.599999
    endloop
  endfacet
  facet normal 0 0 1
    outer loop
      vertex 11.8 4 0.599999
      vertex 0.2 0.2 0.599999
      vertex 11.8 1.5 0.599999
    endloop
  endfacet
  facet normal 0 0 1
    outer loop
      vertex 0.2 0.2 0.599999
      vertex 1.5 11.8 0.599999
      vertex 0.2 25.2 0.599999
    endloop
  endfacet
  facet normal 0 0 1
    outer loop
      vertex 13.5951 21.3059 0.599999
      vertex 25.2 25.2 0.599999
      vertex 13.6 21.4 0.599999
    endloop
  endfacet
  facet normal 0 0 1
    outer loop
      vertex 13.5951 21.3059 0.599999
      vertex 13.6 21.4 0.599999
      vertex 13.5951 21.4 0.599999
    endloop
  endfacet
  facet normal 0 0 1
    outer loop
      vertex 20.7978 13.3688 0.599999
      vertex 15.1 15.1 0.599999
      vertex 20.6719 13.229 0.599999
    endloop
  endfacet
  facet normal 0 0 1
    outer loop
      vertex 20.6719 13.229 0.599999
      vertex 15.1 15.1 0.599999
      vertex 20.5778 13.0661 0.599999
    endloop
  endfacet
  facet normal -0 0 1
    outer loop
      vertex 13.4794 20.95 0.599999
      vertex 15.1 15.1 0.599999
      vertex 13.556 21.1219 0.599999
    endloop
  endfacet
  facet normal -0 0 1
    outer loop
      vertex 13.3688 20.7978 0.599999
      vertex 15.1 15.1 0.599999
      vertex 13.4794 20.95 0.599999
    endloop
  endfacet
  facet normal -0 0 1
    outer loop
      vertex 13.229 20.6719 0.599999
      vertex 15.1 15.1 0.599999
      vertex 13.3688 20.7978 0.599999
    endloop
  endfacet
  facet normal -0 0 1
    outer loop
      vertex 13.0661 20.5778 0.599999
      vertex 15.1 15.1 0.599999
      vertex 13.229 20.6719 0.599999
    endloop
  endfacet
  facet normal -0 0 1
    outer loop
      vertex 12.8871 20.5197 0.599999
      vertex 15.1 15.1 0.599999
      vertex 13.0661 20.5778 0.599999
    endloop
  endfacet
  facet normal -0 0 1
    outer loop
      vertex 12.7 20.5 0.599999
      vertex 15.1 15.1 0.599999
      vertex 12.8871 20.5197 0.599999
    endloop
  endfacet
  facet normal 0 0 1
    outer loop
      vertex 10.3 15.1 0.599999
      vertex 12.7 20.5 0.599999
      vertex 12.5129 20.5197 0.599999
    endloop
  endfacet
  facet normal 0 0 1
    outer loop
      vertex 10.3 15.1 0.599999
      vertex 12.5129 20.5197 0.599999
      vertex 12.3339 20.5778 0.599999
    endloop
  endfacet
  facet normal 0 0 1
    outer loop
      vertex 10.3 15.1 0.599999
      vertex 12.3339 20.5778 0.599999
      vertex 12.171 20.6719 0.599999
    endloop
  endfacet
  facet normal 0 0 1
    outer loop
      vertex 10.3 15.1 0.599999
      vertex 12.171 20.6719 0.599999
      vertex 12.0312 20.7978 0.599999
    endloop
  endfacet
  facet normal 0 0 1
    outer loop
      vertex 10.3 15.1 0.599999
      vertex 12.0312 20.7978 0.599999
      vertex 11.9206 20.95 0.599999
    endloop
  endfacet
  facet normal 0 0 1
    outer loop
      vertex 12.7 20.5 0.599999
      vertex 10.3 15.1 0.599999
      vertex 15.1 15.1 0.599999
    endloop
  endfacet
  facet normal 0 0 1
    outer loop
      vertex 11.844 21.1219 0.599999
      vertex 10.3 15.1 0.599999
      vertex 11.9206 20.95 0.599999
    endloop
  endfacet
  facet normal 0 0 1
    outer loop
      vertex 11.8049 21.3059 0.599999
      vertex 10.3 15.1 0.599999
      vertex 11.844 21.1219 0.599999
    endloop
  endfacet
  facet normal 0 0 1
    outer loop
      vertex 10.3 15.1 0.599999
      vertex 11.8049 21.3059 0.599999
      vertex 11.8 21.4 0.599999
    endloop
  endfacet
  facet normal 0 0 1
    outer loop
      vertex 13.6 4 0.599999
      vertex 13.5951 4.09408 0.599999
      vertex 13.5951 4 0.599999
    endloop
  endfacet
  facet normal -0.951089 -0.308918 0
    outer loop
      vertex 4.88033 12.8871 0
      vertex 4.82219 13.0661 0.599999
      vertex 4.82219 13.0661 0
    endloop
  endfacet
  facet normal -0.951089 -0.308918 0
    outer loop
      vertex 4.82219 13.0661 0.599999
      vertex 4.88033 12.8871 0
      vertex 4.88033 12.8871 0.599999
    endloop
  endfacet
  facet normal -0.994519 -0.104555 0
    outer loop
      vertex 4.9 12.7 0
      vertex 4.88033 12.8871 0.599999
      vertex 4.88033 12.8871 0
    endloop
  endfacet
  facet normal -0.994519 -0.104555 0
    outer loop
      vertex 4.88033 12.8871 0.599999
      vertex 4.9 12.7 0
      vertex 4.9 12.7 0.599999
    endloop
  endfacet
  facet normal -0.86598 -0.500078 0
    outer loop
      vertex 4.82219 13.0661 0
      vertex 4.72812 13.229 0.599999
      vertex 4.72812 13.229 0
    endloop
  endfacet
  facet normal -0.86598 -0.500078 0
    outer loop
      vertex 4.72812 13.229 0.599999
      vertex 4.82219 13.0661 0
      vertex 4.82219 13.0661 0.599999
    endloop
  endfacet
  facet normal -0.587805 0.809003 0
    outer loop
      vertex 4.60222 12.0312 0
      vertex 4.45 11.9206 0.599999
      vertex 4.60222 12.0312 0.599999
    endloop
  endfacet
  facet normal -0.587805 0.809003 0
    outer loop
      vertex 4.45 11.9206 0.599999
      vertex 4.60222 12.0312 0
      vertex 4.45 11.9206 0
    endloop
  endfacet
  facet normal -0.407065 -0.913399 0
    outer loop
      vertex 4.27812 13.556 0
      vertex 4.45 13.4794 0.599999
      vertex 4.27812 13.556 0.599999
    endloop
  endfacet
  facet normal -0.407065 -0.913399 -0
    outer loop
      vertex 4.45 13.4794 0.599999
      vertex 4.27812 13.556 0
      vertex 4.45 13.4794 0
    endloop
  endfacet
  facet normal -0.994519 0.104555 0
    outer loop
      vertex 4.88033 12.5129 0
      vertex 4.9 12.7 0.599999
      vertex 4.9 12.7 0
    endloop
  endfacet
  facet normal -0.994519 0.104555 0
    outer loop
      vertex 4.9 12.7 0.599999
      vertex 4.88033 12.5129 0
      vertex 4.88033 12.5129 0.599999
    endloop
  endfacet
  facet normal -0.743083 -0.6692 0
    outer loop
      vertex 4.72812 13.229 0
      vertex 4.60222 13.3688 0.599999
      vertex 4.60222 13.3688 0
    endloop
  endfacet
  facet normal -0.743083 -0.6692 0
    outer loop
      vertex 4.60222 13.3688 0.599999
      vertex 4.72812 13.229 0
      vertex 4.72812 13.229 0.599999
    endloop
  endfacet
  facet normal -0.743083 0.6692 0
    outer loop
      vertex 4.60222 12.0312 0
      vertex 4.72812 12.171 0.599999
      vertex 4.72812 12.171 0
    endloop
  endfacet
  facet normal -0.743083 0.6692 0
    outer loop
      vertex 4.72812 12.171 0.599999
      vertex 4.60222 12.0312 0
      vertex 4.60222 12.0312 0.599999
    endloop
  endfacet
  facet normal -0.86598 0.500078 0
    outer loop
      vertex 4.72812 12.171 0
      vertex 4.82219 12.3339 0.599999
      vertex 4.82219 12.3339 0
    endloop
  endfacet
  facet normal -0.86598 0.500078 0
    outer loop
      vertex 4.82219 12.3339 0.599999
      vertex 4.72812 12.171 0
      vertex 4.72812 12.171 0.599999
    endloop
  endfacet
  facet normal -0.951089 0.308918 0
    outer loop
      vertex 4.82219 12.3339 0
      vertex 4.88033 12.5129 0.599999
      vertex 4.88033 12.5129 0
    endloop
  endfacet
  facet normal -0.951089 0.308918 0
    outer loop
      vertex 4.88033 12.5129 0.599999
      vertex 4.82219 12.3339 0
      vertex 4.82219 12.3339 0.599999
    endloop
  endfacet
  facet normal 0 -1 0
    outer loop
      vertex 4 13.5951 0
      vertex 4.09408 13.5951 0.599999
      vertex 4 13.5951 0.599999
    endloop
  endfacet
  facet normal 0 -1 -0
    outer loop
      vertex 4.09408 13.5951 0.599999
      vertex 4 13.5951 0
      vertex 4.09408 13.5951 0
    endloop
  endfacet
  facet normal -0.207816 0.978168 0
    outer loop
      vertex 4.27812 11.844 0
      vertex 4.09408 11.8049 0.599999
      vertex 4.27812 11.844 0.599999
    endloop
  endfacet
  facet normal -0.207816 0.978168 0
    outer loop
      vertex 4.09408 11.8049 0.599999
      vertex 4.27812 11.844 0
      vertex 4.09408 11.8049 0
    endloop
  endfacet
  facet normal -0.207816 -0.978168 0
    outer loop
      vertex 4.09408 13.5951 0
      vertex 4.27812 13.556 0.599999
      vertex 4.09408 13.5951 0.599999
    endloop
  endfacet
  facet normal -0.207816 -0.978168 -0
    outer loop
      vertex 4.27812 13.556 0.599999
      vertex 4.09408 13.5951 0
      vertex 4.27812 13.556 0
    endloop
  endfacet
  facet normal -0.587805 -0.809003 0
    outer loop
      vertex 4.45 13.4794 0
      vertex 4.60222 13.3688 0.599999
      vertex 4.45 13.4794 0.599999
    endloop
  endfacet
  facet normal -0.587805 -0.809003 -0
    outer loop
      vertex 4.60222 13.3688 0.599999
      vertex 4.45 13.4794 0
      vertex 4.60222 13.3688 0
    endloop
  endfacet
  facet normal -0.407065 0.913399 0
    outer loop
      vertex 4.45 11.9206 0
      vertex 4.27812 11.844 0.599999
      vertex 4.45 11.9206 0.599999
    endloop
  endfacet
  facet normal -0.407065 0.913399 0
    outer loop
      vertex 4.27812 11.844 0.599999
      vertex 4.45 11.9206 0
      vertex 4.27812 11.844 0
    endloop
  endfacet
  facet normal 0 1 -0
    outer loop
      vertex 4.09408 11.8049 0
      vertex 4 11.8049 0.599999
      vertex 4.09408 11.8049 0.599999
    endloop
  endfacet
  facet normal 0 1 0
    outer loop
      vertex 4 11.8049 0.599999
      vertex 4.09408 11.8049 0
      vertex 4 11.8049 0
    endloop
  endfacet
  facet normal -1 0 0
    outer loop
      vertex 4 13.5951 0
      vertex 4 13.6 0.599999
      vertex 4 13.6 0
    endloop
  endfacet
  facet normal -1 -0 0
    outer loop
      vertex 4 13.6 0.599999
      vertex 4 13.5951 0
      vertex 4 13.5951 0.599999
    endloop
  endfacet
  facet normal -1 0 0
    outer loop
      vertex 4 11.8 0
      vertex 4 11.8049 0.599999
      vertex 4 11.8049 0
    endloop
  endfacet
  facet normal -1 -0 0
    outer loop
      vertex 4 11.8049 0.599999
      vertex 4 11.8 0
      vertex 4 11.8 0.599999
    endloop
  endfacet
  facet normal 1 -0 0
    outer loop
      vertex 1.5 11.8 0.599999
      vertex 1.5 13.6 0
      vertex 1.5 13.6 0.599999
    endloop
  endfacet
  facet normal 1 0 0
    outer loop
      vertex 1.5 13.6 0
      vertex 1.5 11.8 0.599999
      vertex 1.5 11.8 0
    endloop
  endfacet
  facet normal 0 -1 0
    outer loop
      vertex 1.5 13.6 0
      vertex 4 13.6 0.599999
      vertex 1.5 13.6 0.599999
    endloop
  endfacet
  facet normal 0 -1 -0
    outer loop
      vertex 4 13.6 0.599999
      vertex 1.5 13.6 0
      vertex 4 13.6 0
    endloop
  endfacet
  facet normal 0 1 -0
    outer loop
      vertex 4 11.8 0
      vertex 1.5 11.8 0.599999
      vertex 4 11.8 0.599999
    endloop
  endfacet
  facet normal 0 1 0
    outer loop
      vertex 1.5 11.8 0.599999
      vertex 4 11.8 0
      vertex 1.5 11.8 0
    endloop
  endfacet
  facet normal 0.951151 0.308726 0
    outer loop
      vertex 20.5778 12.3339 0.599999
      vertex 20.5197 12.5129 0
      vertex 20.5197 12.5129 0.599999
    endloop
  endfacet
  facet normal 0.951151 0.308726 0
    outer loop
      vertex 20.5197 12.5129 0
      vertex 20.5778 12.3339 0.599999
      vertex 20.5778 12.3339 0
    endloop
  endfacet
  facet normal 0.994503 0.104712 0
    outer loop
      vertex 20.5197 12.5129 0.599999
      vertex 20.5 12.7 0
      vertex 20.5 12.7 0.599999
    endloop
  endfacet
  facet normal 0.994503 0.104712 0
    outer loop
      vertex 20.5 12.7 0
      vertex 20.5197 12.5129 0.599999
      vertex 20.5197 12.5129 0
    endloop
  endfacet
  facet normal 0.865911 0.500198 0
    outer loop
      vertex 20.6719 12.171 0.599999
      vertex 20.5778 12.3339 0
      vertex 20.5778 12.3339 0.599999
    endloop
  endfacet
  facet normal 0.865911 0.500198 0
    outer loop
      vertex 20.5778 12.3339 0
      vertex 20.6719 12.171 0.599999
      vertex 20.6719 12.171 0
    endloop
  endfacet
  facet normal 0.587856 -0.808966 0
    outer loop
      vertex 20.7978 13.3688 0
      vertex 20.95 13.4794 0.599999
      vertex 20.7978 13.3688 0.599999
    endloop
  endfacet
  facet normal 0.587856 -0.808966 0
    outer loop
      vertex 20.95 13.4794 0.599999
      vertex 20.7978 13.3688 0
      vertex 20.95 13.4794 0
    endloop
  endfacet
  facet normal 0.407026 0.913417 -0
    outer loop
      vertex 21.1219 11.844 0
      vertex 20.95 11.9206 0.599999
      vertex 21.1219 11.844 0.599999
    endloop
  endfacet
  facet normal 0.407026 0.913417 0
    outer loop
      vertex 20.95 11.9206 0.599999
      vertex 21.1219 11.844 0
      vertex 20.95 11.9206 0
    endloop
  endfacet
  facet normal 0.994503 -0.104712 0
    outer loop
      vertex 20.5 12.7 0.599999
      vertex 20.5197 12.8871 0
      vertex 20.5197 12.8871 0.599999
    endloop
  endfacet
  facet normal 0.994503 -0.104712 0
    outer loop
      vertex 20.5197 12.8871 0
      vertex 20.5 12.7 0.599999
      vertex 20.5 12.7 0
    endloop
  endfacet
  facet normal 0.743083 0.6692 0
    outer loop
      vertex 20.7978 12.0312 0.599999
      vertex 20.6719 12.171 0
      vertex 20.6719 12.171 0.599999
    endloop
  endfacet
  facet normal 0.743083 0.6692 0
    outer loop
      vertex 20.6719 12.171 0
      vertex 20.7978 12.0312 0.599999
      vertex 20.7978 12.0312 0
    endloop
  endfacet
  facet normal 0.743083 -0.6692 0
    outer loop
      vertex 20.6719 13.229 0.599999
      vertex 20.7978 13.3688 0
      vertex 20.7978 13.3688 0.599999
    endloop
  endfacet
  facet normal 0.743083 -0.6692 0
    outer loop
      vertex 20.7978 13.3688 0
      vertex 20.6719 13.229 0.599999
      vertex 20.6719 13.229 0
    endloop
  endfacet
  facet normal 0.865911 -0.500198 0
    outer loop
      vertex 20.5778 13.0661 0.599999
      vertex 20.6719 13.229 0
      vertex 20.6719 13.229 0.599999
    endloop
  endfacet
  facet normal 0.865911 -0.500198 0
    outer loop
      vertex 20.6719 13.229 0
      vertex 20.5778 13.0661 0.599999
      vertex 20.5778 13.0661 0
    endloop
  endfacet
  facet normal 0.951151 -0.308726 0
    outer loop
      vertex 20.5197 12.8871 0.599999
      vertex 20.5778 13.0661 0
      vertex 20.5778 13.0661 0.599999
    endloop
  endfacet
  facet normal 0.951151 -0.308726 0
    outer loop
      vertex 20.5778 13.0661 0
      vertex 20.5197 12.8871 0.599999
      vertex 20.5197 12.8871 0
    endloop
  endfacet
  facet normal 0 1 -0
    outer loop
      vertex 21.4 11.8049 0
      vertex 21.3059 11.8049 0.599999
      vertex 21.4 11.8049 0.599999
    endloop
  endfacet
  facet normal 0 1 0
    outer loop
      vertex 21.3059 11.8049 0.599999
      vertex 21.4 11.8049 0
      vertex 21.3059 11.8049 0
    endloop
  endfacet
  facet normal 0.207859 -0.978159 0
    outer loop
      vertex 21.1219 13.556 0
      vertex 21.3059 13.5951 0.599999
      vertex 21.1219 13.556 0.599999
    endloop
  endfacet
  facet normal 0.207859 -0.978159 0
    outer loop
      vertex 21.3059 13.5951 0.599999
      vertex 21.1219 13.556 0
      vertex 21.3059 13.5951 0
    endloop
  endfacet
  facet normal 0.207859 0.978159 -0
    outer loop
      vertex 21.3059 11.8049 0
      vertex 21.1219 11.844 0.599999
      vertex 21.3059 11.8049 0.599999
    endloop
  endfacet
  facet normal 0.207859 0.978159 0
    outer loop
      vertex 21.1219 11.844 0.599999
      vertex 21.3059 11.8049 0
      vertex 21.1219 11.844 0
    endloop
  endfacet
  facet normal 0.587856 0.808966 -0
    outer loop
      vertex 20.95 11.9206 0
      vertex 20.7978 12.0312 0.599999
      vertex 20.95 11.9206 0.599999
    endloop
  endfacet
  facet normal 0.587856 0.808966 0
    outer loop
      vertex 20.7978 12.0312 0.599999
      vertex 20.95 11.9206 0
      vertex 20.7978 12.0312 0
    endloop
  endfacet
  facet normal 0.407026 -0.913417 0
    outer loop
      vertex 20.95 13.4794 0
      vertex 21.1219 13.556 0.599999
      vertex 20.95 13.4794 0.599999
    endloop
  endfacet
  facet normal 0.407026 -0.913417 0
    outer loop
      vertex 21.1219 13.556 0.599999
      vertex 20.95 13.4794 0
      vertex 21.1219 13.556 0
    endloop
  endfacet
  facet normal 0 -1 0
    outer loop
      vertex 21.3059 13.5951 0
      vertex 21.4 13.5951 0.599999
      vertex 21.3059 13.5951 0.599999
    endloop
  endfacet
  facet normal 0 -1 -0
    outer loop
      vertex 21.4 13.5951 0.599999
      vertex 21.3059 13.5951 0
      vertex 21.4 13.5951 0
    endloop
  endfacet
  facet normal 1 -0 0
    outer loop
      vertex 21.4 11.8 0.599999
      vertex 21.4 11.8049 0
      vertex 21.4 11.8049 0.599999
    endloop
  endfacet
  facet normal 1 0 0
    outer loop
      vertex 21.4 11.8049 0
      vertex 21.4 11.8 0.599999
      vertex 21.4 11.8 0
    endloop
  endfacet
  facet normal 1 -0 0
    outer loop
      vertex 21.4 13.5951 0.599999
      vertex 21.4 13.6 0
      vertex 21.4 13.6 0.599999
    endloop
  endfacet
  facet normal 1 0 0
    outer loop
      vertex 21.4 13.6 0
      vertex 21.4 13.5951 0.599999
      vertex 21.4 13.5951 0
    endloop
  endfacet
  facet normal -1 0 0
    outer loop
      vertex 23.9 11.8 0
      vertex 23.9 13.6 0.599999
      vertex 23.9 13.6 0
    endloop
  endfacet
  facet normal -1 -0 0
    outer loop
      vertex 23.9 13.6 0.599999
      vertex 23.9 11.8 0
      vertex 23.9 11.8 0.599999
    endloop
  endfacet
  facet normal 0 1 -0
    outer loop
      vertex 23.9 11.8 0
      vertex 21.4 11.8 0.599999
      vertex 23.9 11.8 0.599999
    endloop
  endfacet
  facet normal 0 1 0
    outer loop
      vertex 21.4 11.8 0.599999
      vertex 23.9 11.8 0
      vertex 21.4 11.8 0
    endloop
  endfacet
  facet normal 0 -1 0
    outer loop
      vertex 21.4 13.6 0
      vertex 23.9 13.6 0.599999
      vertex 21.4 13.6 0.599999
    endloop
  endfacet
  facet normal 0 -1 -0
    outer loop
      vertex 23.9 13.6 0.599999
      vertex 21.4 13.6 0
      vertex 23.9 13.6 0
    endloop
  endfacet
  facet normal 0.308918 -0.951089 0
    outer loop
      vertex 12.3339 4.82219 0
      vertex 12.5129 4.88033 0.599999
      vertex 12.3339 4.82219 0.599999
    endloop
  endfacet
  facet normal 0.308918 -0.951089 0
    outer loop
      vertex 12.5129 4.88033 0.599999
      vertex 12.3339 4.82219 0
      vertex 12.5129 4.88033 0
    endloop
  endfacet
  facet normal 0.104555 -0.994519 0
    outer loop
      vertex 12.5129 4.88033 0
      vertex 12.7 4.9 0.599999
      vertex 12.5129 4.88033 0.599999
    endloop
  endfacet
  facet normal 0.104555 -0.994519 0
    outer loop
      vertex 12.7 4.9 0.599999
      vertex 12.5129 4.88033 0
      vertex 12.7 4.9 0
    endloop
  endfacet
  facet normal 0.500078 -0.86598 0
    outer loop
      vertex 12.171 4.72812 0
      vertex 12.3339 4.82219 0.599999
      vertex 12.171 4.72812 0.599999
    endloop
  endfacet
  facet normal 0.500078 -0.86598 0
    outer loop
      vertex 12.3339 4.82219 0.599999
      vertex 12.171 4.72812 0
      vertex 12.3339 4.82219 0
    endloop
  endfacet
  facet normal -0.809003 -0.587805 0
    outer loop
      vertex 13.4794 4.45 0
      vertex 13.3688 4.60222 0.599999
      vertex 13.3688 4.60222 0
    endloop
  endfacet
  facet normal -0.809003 -0.587805 0
    outer loop
      vertex 13.3688 4.60222 0.599999
      vertex 13.4794 4.45 0
      vertex 13.4794 4.45 0.599999
    endloop
  endfacet
  facet normal 0.913399 -0.407065 0
    outer loop
      vertex 11.844 4.27812 0.599999
      vertex 11.9206 4.45 0
      vertex 11.9206 4.45 0.599999
    endloop
  endfacet
  facet normal 0.913399 -0.407065 0
    outer loop
      vertex 11.9206 4.45 0
      vertex 11.844 4.27812 0.599999
      vertex 11.844 4.27812 0
    endloop
  endfacet
  facet normal -0.104555 -0.994519 0
    outer loop
      vertex 12.7 4.9 0
      vertex 12.8871 4.88033 0.599999
      vertex 12.7 4.9 0.599999
    endloop
  endfacet
  facet normal -0.104555 -0.994519 -0
    outer loop
      vertex 12.8871 4.88033 0.599999
      vertex 12.7 4.9 0
      vertex 12.8871 4.88033 0
    endloop
  endfacet
  facet normal 0.6692 -0.743083 0
    outer loop
      vertex 12.0312 4.60222 0
      vertex 12.171 4.72812 0.599999
      vertex 12.0312 4.60222 0.599999
    endloop
  endfacet
  facet normal 0.6692 -0.743083 0
    outer loop
      vertex 12.171 4.72812 0.599999
      vertex 12.0312 4.60222 0
      vertex 12.171 4.72812 0
    endloop
  endfacet
  facet normal -0.6692 -0.743083 0
    outer loop
      vertex 13.229 4.72812 0
      vertex 13.3688 4.60222 0.599999
      vertex 13.229 4.72812 0.599999
    endloop
  endfacet
  facet normal -0.6692 -0.743083 -0
    outer loop
      vertex 13.3688 4.60222 0.599999
      vertex 13.229 4.72812 0
      vertex 13.3688 4.60222 0
    endloop
  endfacet
  facet normal -0.500078 -0.86598 0
    outer loop
      vertex 13.0661 4.82219 0
      vertex 13.229 4.72812 0.599999
      vertex 13.0661 4.82219 0.599999
    endloop
  endfacet
  facet normal -0.500078 -0.86598 -0
    outer loop
      vertex 13.229 4.72812 0.599999
      vertex 13.0661 4.82219 0
      vertex 13.229 4.72812 0
    endloop
  endfacet
  facet normal -0.308918 -0.951089 0
    outer loop
      vertex 12.8871 4.88033 0
      vertex 13.0661 4.82219 0.599999
      vertex 12.8871 4.88033 0.599999
    endloop
  endfacet
  facet normal -0.308918 -0.951089 -0
    outer loop
      vertex 13.0661 4.82219 0.599999
      vertex 12.8871 4.88033 0
      vertex 13.0661 4.82219 0
    endloop
  endfacet
  facet normal 1 -0 0
    outer loop
      vertex 11.8049 4 0.599999
      vertex 11.8049 4.09408 0
      vertex 11.8049 4.09408 0.599999
    endloop
  endfacet
  facet normal 1 0 0
    outer loop
      vertex 11.8049 4.09408 0
      vertex 11.8049 4 0.599999
      vertex 11.8049 4 0
    endloop
  endfacet
  facet normal -0.978168 -0.207816 0
    outer loop
      vertex 13.5951 4.09408 0
      vertex 13.556 4.27812 0.599999
      vertex 13.556 4.27812 0
    endloop
  endfacet
  facet normal -0.978168 -0.207816 0
    outer loop
      vertex 13.556 4.27812 0.599999
      vertex 13.5951 4.09408 0
      vertex 13.5951 4.09408 0.599999
    endloop
  endfacet
  facet normal 0.978168 -0.207816 0
    outer loop
      vertex 11.8049 4.09408 0.599999
      vertex 11.844 4.27812 0
      vertex 11.844 4.27812 0.599999
    endloop
  endfacet
  facet normal 0.978168 -0.207816 0
    outer loop
      vertex 11.844 4.27812 0
      vertex 11.8049 4.09408 0.599999
      vertex 11.8049 4.09408 0
    endloop
  endfacet
  facet normal 0.809003 -0.587805 0
    outer loop
      vertex 11.9206 4.45 0.599999
      vertex 12.0312 4.60222 0
      vertex 12.0312 4.60222 0.599999
    endloop
  endfacet
  facet normal 0.809003 -0.587805 0
    outer loop
      vertex 12.0312 4.60222 0
      vertex 11.9206 4.45 0.599999
      vertex 11.9206 4.45 0
    endloop
  endfacet
  facet normal -0.913399 -0.407065 0
    outer loop
      vertex 13.556 4.27812 0
      vertex 13.4794 4.45 0.599999
      vertex 13.4794 4.45 0
    endloop
  endfacet
  facet normal -0.913399 -0.407065 0
    outer loop
      vertex 13.4794 4.45 0.599999
      vertex 13.556 4.27812 0
      vertex 13.556 4.27812 0.599999
    endloop
  endfacet
  facet normal -1 0 0
    outer loop
      vertex 13.5951 4 0
      vertex 13.5951 4.09408 0.599999
      vertex 13.5951 4.09408 0
    endloop
  endfacet
  facet normal -1 -0 0
    outer loop
      vertex 13.5951 4.09408 0.599999
      vertex 13.5951 4 0
      vertex 13.5951 4 0.599999
    endloop
  endfacet
  facet normal 0 -1 0
    outer loop
      vertex 11.8 4 0
      vertex 11.8049 4 0.599999
      vertex 11.8 4 0.599999
    endloop
  endfacet
  facet normal 0 -1 -0
    outer loop
      vertex 11.8049 4 0.599999
      vertex 11.8 4 0
      vertex 11.8049 4 0
    endloop
  endfacet
  facet normal 0 -1 0
    outer loop
      vertex 13.5951 4 0
      vertex 13.6 4 0.599999
      vertex 13.5951 4 0.599999
    endloop
  endfacet
  facet normal 0 -1 -0
    outer loop
      vertex 13.6 4 0.599999
      vertex 13.5951 4 0
      vertex 13.6 4 0
    endloop
  endfacet
  facet normal 0 1 -0
    outer loop
      vertex 13.6 1.5 0
      vertex 11.8 1.5 0.599999
      vertex 13.6 1.5 0.599999
    endloop
  endfacet
  facet normal 0 1 0
    outer loop
      vertex 11.8 1.5 0.599999
      vertex 13.6 1.5 0
      vertex 11.8 1.5 0
    endloop
  endfacet
  facet normal 1 -0 0
    outer loop
      vertex 11.8 1.5 0.599999
      vertex 11.8 4 0
      vertex 11.8 4 0.599999
    endloop
  endfacet
  facet normal 1 0 0
    outer loop
      vertex 11.8 4 0
      vertex 11.8 1.5 0.599999
      vertex 11.8 1.5 0
    endloop
  endfacet
  facet normal -1 0 0
    outer loop
      vertex 13.6 1.5 0
      vertex 13.6 4 0.599999
      vertex 13.6 4 0
    endloop
  endfacet
  facet normal -1 -0 0
    outer loop
      vertex 13.6 4 0.599999
      vertex 13.6 1.5 0
      vertex 13.6 1.5 0.599999
    endloop
  endfacet
  facet normal -0.308726 0.951151 0
    outer loop
      vertex 13.0661 20.5778 0
      vertex 12.8871 20.5197 0.599999
      vertex 13.0661 20.5778 0.599999
    endloop
  endfacet
  facet normal -0.308726 0.951151 0
    outer loop
      vertex 12.8871 20.5197 0.599999
      vertex 13.0661 20.5778 0
      vertex 12.8871 20.5197 0
    endloop
  endfacet
  facet normal -0.104712 0.994503 0
    outer loop
      vertex 12.8871 20.5197 0
      vertex 12.7 20.5 0.599999
      vertex 12.8871 20.5197 0.599999
    endloop
  endfacet
  facet normal -0.104712 0.994503 0
    outer loop
      vertex 12.7 20.5 0.599999
      vertex 12.8871 20.5197 0
      vertex 12.7 20.5 0
    endloop
  endfacet
  facet normal -0.500198 0.865911 0
    outer loop
      vertex 13.229 20.6719 0
      vertex 13.0661 20.5778 0.599999
      vertex 13.229 20.6719 0.599999
    endloop
  endfacet
  facet normal -0.500198 0.865911 0
    outer loop
      vertex 13.0661 20.5778 0.599999
      vertex 13.229 20.6719 0
      vertex 13.0661 20.5778 0
    endloop
  endfacet
  facet normal 0.808966 0.587856 0
    outer loop
      vertex 12.0312 20.7978 0.599999
      vertex 11.9206 20.95 0
      vertex 11.9206 20.95 0.599999
    endloop
  endfacet
  facet normal 0.808966 0.587856 0
    outer loop
      vertex 11.9206 20.95 0
      vertex 12.0312 20.7978 0.599999
      vertex 12.0312 20.7978 0
    endloop
  endfacet
  facet normal -0.913417 0.407026 0
    outer loop
      vertex 13.4794 20.95 0
      vertex 13.556 21.1219 0.599999
      vertex 13.556 21.1219 0
    endloop
  endfacet
  facet normal -0.913417 0.407026 0
    outer loop
      vertex 13.556 21.1219 0.599999
      vertex 13.4794 20.95 0
      vertex 13.4794 20.95 0.599999
    endloop
  endfacet
  facet normal 0.104712 0.994503 -0
    outer loop
      vertex 12.7 20.5 0
      vertex 12.5129 20.5197 0.599999
      vertex 12.7 20.5 0.599999
    endloop
  endfacet
  facet normal 0.104712 0.994503 0
    outer loop
      vertex 12.5129 20.5197 0.599999
      vertex 12.7 20.5 0
      vertex 12.5129 20.5197 0
    endloop
  endfacet
  facet normal -0.6692 0.743083 0
    outer loop
      vertex 13.3688 20.7978 0
      vertex 13.229 20.6719 0.599999
      vertex 13.3688 20.7978 0.599999
    endloop
  endfacet
  facet normal -0.6692 0.743083 0
    outer loop
      vertex 13.229 20.6719 0.599999
      vertex 13.3688 20.7978 0
      vertex 13.229 20.6719 0
    endloop
  endfacet
  facet normal 0.6692 0.743083 -0
    outer loop
      vertex 12.171 20.6719 0
      vertex 12.0312 20.7978 0.599999
      vertex 12.171 20.6719 0.599999
    endloop
  endfacet
  facet normal 0.6692 0.743083 0
    outer loop
      vertex 12.0312 20.7978 0.599999
      vertex 12.171 20.6719 0
      vertex 12.0312 20.7978 0
    endloop
  endfacet
  facet normal 0.500198 0.865911 -0
    outer loop
      vertex 12.3339 20.5778 0
      vertex 12.171 20.6719 0.599999
      vertex 12.3339 20.5778 0.599999
    endloop
  endfacet
  facet normal 0.500198 0.865911 0
    outer loop
      vertex 12.171 20.6719 0.599999
      vertex 12.3339 20.5778 0
      vertex 12.171 20.6719 0
    endloop
  endfacet
  facet normal 0.308726 0.951151 -0
    outer loop
      vertex 12.5129 20.5197 0
      vertex 12.3339 20.5778 0.599999
      vertex 12.5129 20.5197 0.599999
    endloop
  endfacet
  facet normal 0.308726 0.951151 0
    outer loop
      vertex 12.3339 20.5778 0.599999
      vertex 12.5129 20.5197 0
      vertex 12.3339 20.5778 0
    endloop
  endfacet
  facet normal -1 0 0
    outer loop
      vertex 13.5951 21.3059 0
      vertex 13.5951 21.4 0.599999
      vertex 13.5951 21.4 0
    endloop
  endfacet
  facet normal -1 -0 0
    outer loop
      vertex 13.5951 21.4 0.599999
      vertex 13.5951 21.3059 0
      vertex 13.5951 21.3059 0.599999
    endloop
  endfacet
  facet normal 0.978159 0.207859 0
    outer loop
      vertex 11.844 21.1219 0.599999
      vertex 11.8049 21.3059 0
      vertex 11.8049 21.3059 0.599999
    endloop
  endfacet
  facet normal 0.978159 0.207859 0
    outer loop
      vertex 11.8049 21.3059 0
      vertex 11.844 21.1219 0.599999
      vertex 11.844 21.1219 0
    endloop
  endfacet
  facet normal -0.978159 0.207859 0
    outer loop
      vertex 13.556 21.1219 0
      vertex 13.5951 21.3059 0.599999
      vertex 13.5951 21.3059 0
    endloop
  endfacet
  facet normal -0.978159 0.207859 0
    outer loop
      vertex 13.5951 21.3059 0.599999
      vertex 13.556 21.1219 0
      vertex 13.556 21.1219 0.599999
    endloop
  endfacet
  facet normal -0.808966 0.587856 0
    outer loop
      vertex 13.3688 20.7978 0
      vertex 13.4794 20.95 0.599999
      vertex 13.4794 20.95 0
    endloop
  endfacet
  facet normal -0.808966 0.587856 0
    outer loop
      vertex 13.4794 20.95 0.599999
      vertex 13.3688 20.7978 0
      vertex 13.3688 20.7978 0.599999
    endloop
  endfacet
  facet normal 0.913417 0.407026 0
    outer loop
      vertex 11.9206 20.95 0.599999
      vertex 11.844 21.1219 0
      vertex 11.844 21.1219 0.599999
    endloop
  endfacet
  facet normal 0.913417 0.407026 0
    outer loop
      vertex 11.844 21.1219 0
      vertex 11.9206 20.95 0.599999
      vertex 11.9206 20.95 0
    endloop
  endfacet
  facet normal 1 -0 0
    outer loop
      vertex 11.8049 21.3059 0.599999
      vertex 11.8049 21.4 0
      vertex 11.8049 21.4 0.599999
    endloop
  endfacet
  facet normal 1 0 0
    outer loop
      vertex 11.8049 21.4 0
      vertex 11.8049 21.3059 0.599999
      vertex 11.8049 21.3059 0
    endloop
  endfacet
  facet normal 0 1 -0
    outer loop
      vertex 13.6 21.4 0
      vertex 13.5951 21.4 0.599999
      vertex 13.6 21.4 0.599999
    endloop
  endfacet
  facet normal 0 1 0
    outer loop
      vertex 13.5951 21.4 0.599999
      vertex 13.6 21.4 0
      vertex 13.5951 21.4 0
    endloop
  endfacet
  facet normal 0 1 -0
    outer loop
      vertex 11.8049 21.4 0
      vertex 11.8 21.4 0.599999
      vertex 11.8049 21.4 0.599999
    endloop
  endfacet
  facet normal 0 1 0
    outer loop
      vertex 11.8 21.4 0.599999
      vertex 11.8049 21.4 0
      vertex 11.8 21.4 0
    endloop
  endfacet
  facet normal 0 -1 0
    outer loop
      vertex 11.8 23.9 0
      vertex 13.6 23.9 0.599999
      vertex 11.8 23.9 0.599999
    endloop
  endfacet
  facet normal 0 -1 -0
    outer loop
      vertex 13.6 23.9 0.599999
      vertex 11.8 23.9 0
      vertex 13.6 23.9 0
    endloop
  endfacet
  facet normal -1 0 0
    outer loop
      vertex 13.6 21.4 0
      vertex 13.6 23.9 0.599999
      vertex 13.6 23.9 0
    endloop
  endfacet
  facet normal -1 -0 0
    outer loop
      vertex 13.6 23.9 0.599999
      vertex 13.6 21.4 0
      vertex 13.6 21.4 0.599999
    endloop
  endfacet
  facet normal 1 -0 0
    outer loop
      vertex 11.8 21.4 0.599999
      vertex 11.8 23.9 0
      vertex 11.8 23.9 0.599999
    endloop
  endfacet
  facet normal 1 0 0
    outer loop
      vertex 11.8 23.9 0
      vertex 11.8 21.4 0.599999
      vertex 11.8 21.4 0
    endloop
  endfacet
  facet normal 0 -1 0
    outer loop
      vertex 0.2 0.2 0
      vertex 25.2 0.2 0.599999
      vertex 0.2 0.2 0.599999
    endloop
  endfacet
  facet normal 0 -1 -0
    outer loop
      vertex 25.2 0.2 0.599999
      vertex 0.2 0.2 0
      vertex 25.2 0.2 0
    endloop
  endfacet
  facet normal 0 1 -0
    outer loop
      vertex 25.2 25.2 0
      vertex 0.2 25.2 0.599999
      vertex 25.2 25.2 0.599999
    endloop
  endfacet
  facet normal 0 1 0
    outer loop
      vertex 0.2 25.2 0.599999
      vertex 25.2 25.2 0
      vertex 0.2 25.2 0
    endloop
  endfacet
  facet normal -1 0 0
    outer loop
      vertex 0.2 0.2 0
      vertex 0.2 25.2 0.599999
      vertex 0.2 25.2 0
    endloop
  endfacet
  facet normal -1 -0 0
    outer loop
      vertex 0.2 25.2 0.599999
      vertex 0.2 0.2 0
      vertex 0.2 0.2 0.599999
    endloop
  endfacet
  facet normal 1 -0 0
    outer loop
      vertex 25.2 0.2 0.599999
      vertex 25.2 25.2 0
      vertex 25.2 25.2 0.599999
    endloop
  endfacet
  facet normal 1 0 0
    outer loop
      vertex 25.2 25.2 0
      vertex 25.2 0.2 0.599999
      vertex 25.2 0.2 0
    endloop
  endfacet
endsolid OpenSCAD_Model
